<?xml version="1.0" standalone="no"?>
<!DOCTYPE svg PUBLIC "-//W3C//DTD SVG 20010904//EN"
 "http://www.w3.org/TR/2001/REC-SVG-20010904/DTD/svg10.dtd">
<svg version="1.0" xmlns="http://www.w3.org/2000/svg"
 width="183.000000pt" height="152.000000pt" viewBox="0 0 183.000000 152.000000"
 preserveAspectRatio="xMidYMid meet">

<g transform="translate(0.000000,152.000000) scale(0.100000,-0.100000)"
fill="#000000" stroke="none">
<path d="M1415 1381 c-10 -17 -78 -559 -72 -575 4 -9 20 -19 37 -22 l30 -6 0
-280 c0 -173 4 -287 10 -299 12 -21 50 -25 68 -7 16 16 17 1149 2 1179 -11 20
-64 27 -75 10z"/>
<path d="M372 1358 c-8 -8 -12 -46 -12 -105 0 -93 0 -93 -25 -93 -25 0 -25 0
-25 94 0 91 -1 95 -21 91 -12 -3 -24 -7 -27 -10 -4 -3 -6 -74 -6 -158 1 -169
9 -201 64 -234 l30 -17 0 -362 c0 -390 0 -390 52 -382 l23 3 3 370 2 370 29
17 c59 33 66 56 69 238 3 142 1 168 -12 179 -13 11 -19 11 -31 1 -11 -9 -15
-35 -15 -106 0 -94 0 -94 -25 -94 -25 0 -25 0 -25 93 0 85 -8 117 -30 117 -3
0 -11 -5 -18 -12z"/>
<path d="M779 1272 c-36 -10 -91 -33 -122 -52 l-57 -34 0 -71 c0 -95 -14 -139
-61 -190 l-39 -42 0 -204 0 -203 64 -62 c101 -100 212 -144 356 -144 135 0
264 54 362 153 l58 57 0 116 c0 111 -1 118 -24 139 l-25 23 -10 -49 c-25 -113
-104 -215 -209 -266 -51 -25 -68 -28 -157 -28 -93 0 -104 2 -161 32 -35 18
-82 55 -112 87 -152 167 -118 425 72 554 181 121 426 56 533 -143 l30 -56 13
117 14 117 -45 38 c-131 113 -311 155 -480 111z"/>
<path d="M845 1071 c-77 -19 -161 -86 -199 -159 -25 -48 -34 -131 -21 -193 15
-73 34 -106 92 -160 145 -136 382 -91 470 89 23 47 28 70 28 132 0 67 -4 82
-36 140 -21 39 -53 78 -78 97 -69 53 -171 74 -256 54z"/>
</g>
</svg>
