<?xml version="1.0" standalone="no"?>
<!DOCTYPE svg PUBLIC "-//W3C//DTD SVG 20010904//EN"
 "http://www.w3.org/TR/2001/REC-SVG-20010904/DTD/svg10.dtd">
<svg version="1.0" xmlns="http://www.w3.org/2000/svg"
 width="182.000000pt" height="152.000000pt" viewBox="0 0 182.000000 152.000000"
 preserveAspectRatio="xMidYMid meet">

<g transform="translate(0.000000,152.000000) scale(0.100000,-0.100000)"
fill="#000000" stroke="none">
<path d="M735 1265 l-74 -115 -188 -2 -188 -3 0 -25 0 -25 389 -3 c225 -1 394
2 399 7 5 5 6 18 2 30 -6 20 -13 21 -166 21 -87 0 -159 4 -159 9 0 5 21 41 46
80 l47 71 73 0 c62 0 75 3 84 19 19 36 -11 51 -106 51 l-84 0 -75 -115z"/>
<path d="M330 982 c0 -15 5 -99 10 -187 6 -88 17 -267 25 -399 9 -142 19 -244
26 -252 9 -10 41 -14 126 -14 l114 0 -12 22 c-35 65 -25 142 22 179 19 14 20
19 9 56 -10 31 -10 49 -1 76 11 32 10 37 -19 65 -29 30 -34 45 -31 107 6 98
80 203 176 250 43 22 73 28 154 32 l101 6 0 42 0 41 -350 1 -350 1 0 -26z"/>
<path d="M863 830 c-108 -22 -183 -108 -183 -209 0 -34 4 -42 23 -46 12 -3
197 -4 411 -3 439 3 414 -2 402 81 -9 62 -57 124 -121 156 -48 25 -55 26 -270
28 -121 1 -239 -2 -262 -7z"/>
<path d="M747 472 c-21 -23 -22 -76 -2 -96 25 -25 65 -27 381 -24 280 3 303 4
323 22 26 24 28 77 3 99 -17 15 -56 17 -354 17 -312 0 -336 -1 -351 -18z"/>
<path d="M687 263 c-13 -12 -7 -58 9 -82 34 -48 60 -51 404 -51 347 0 372 3
405 54 9 13 15 37 13 53 l-3 28 -411 3 c-226 1 -413 -1 -417 -5z"/>
</g>
</svg>
