<?xml version="1.0" standalone="no"?>
<!DOCTYPE svg PUBLIC "-//W3C//DTD SVG 20010904//EN"
 "http://www.w3.org/TR/2001/REC-SVG-20010904/DTD/svg10.dtd">
<svg version="1.0" xmlns="http://www.w3.org/2000/svg"
 width="184.000000pt" height="153.000000pt" viewBox="0 0 184.000000 153.000000"
 preserveAspectRatio="xMidYMid meet">

<g transform="translate(0.000000,153.000000) scale(0.100000,-0.100000)"
fill="#000000" stroke="none">
<path d="M833 1340 c-159 -33 -270 -180 -261 -348 2 -54 0 -62 -30 -96 -62
-70 -33 -170 58 -197 33 -10 44 -9 84 10 25 13 50 20 56 16 5 -3 10 -28 10
-56 0 -58 24 -89 70 -89 54 0 70 28 70 124 0 89 11 113 48 102 15 -5 20 -19
25 -69 6 -69 28 -97 77 -97 29 0 60 27 60 53 0 20 6 21 48 6 42 -15 93 3 128
44 36 43 31 114 -14 160 -27 29 -30 39 -34 117 -5 96 -27 152 -84 218 -66 78
-206 124 -311 102z m31 -135 c6 -17 -30 -46 -50 -38 -17 6 -18 40 -1 46 24 10
45 7 51 -8z m-89 -55 c3 -5 -4 -33 -17 -60 -18 -39 -28 -50 -43 -48 -25 4 -23
38 6 85 20 33 42 42 54 23z"/>
<path d="M645 637 c-6 -13 166 -456 191 -495 31 -48 108 -47 132 1 23 44 192
480 192 493 0 19 -14 18 -31 -2 -35 -42 -99 -55 -149 -29 -30 15 -30 15 -73
-30 -36 -38 -50 -45 -81 -45 -66 0 -126 50 -126 105 0 18 -48 21 -55 2z"/>
</g>
</svg>
